<svg width="3067" height="265" viewBox="0 0 3067 265" fill="none" xmlns="http://www.w3.org/2000/svg">
<path d="M713.61 43.8594H615.98V94.0494H713.61V43.8594Z" fill="white"/>
<path d="M713.61 123.379H615.98V218.529H852.22V169.309H713.61V123.379Z" fill="white"/>
<path d="M985.75 43.8594H888.12V94.0494H985.75V43.8594Z" fill="white"/>
<path d="M985.75 123.379H888.12V218.519H985.75V123.379Z" fill="white"/>
<path d="M1843.27 123.379H1745.64V218.519H1843.27V123.379Z" fill="white"/>
<path d="M1923.69 43.8594H1665.23V94.0494H1923.69V43.8594Z" fill="white"/>
<path d="M1960.69 94.0494H2058.32H2204.21V43.8594H1960.69V94.0494Z" fill="white"/>
<path d="M1960.69 218.529H2058.32V169.309H2163.7V123.379H1960.69V218.529Z" fill="white"/>
<path d="M1628.23 43.8594H1526.65V94.0494H1628.23V43.8594Z" fill="white"/>
<path d="M1431.27 43.8594H1333.64V94.0494H1431.27V43.8594Z" fill="white"/>
<path d="M1333.64 218.529H1431.27V169.309H1526.65V218.529H1628.23V123.379H1333.64V218.529Z" fill="white"/>
<path d="M2472.22 43.8594H2241.21V94.0494H2424.62V123.389H2291.23C2263.6 123.389 2241.21 145.779 2241.21 173.409V218.529H2338.84V169.309H2424.61V218.529H2522.23V93.8794C2522.23 66.2494 2499.84 43.8594 2472.21 43.8594H2472.22Z" fill="white"/>
<path d="M2655.76 43.8594H2558.13V94.0494H2655.76V43.8594Z" fill="white"/>
<path d="M2655.77 123.379H2558.13V218.529H2794.38V169.309H2655.77V123.379Z" fill="white"/>
<path d="M2927.9 43.8594H2830.27V94.0494H2927.9V43.8594Z" fill="white"/>
<path d="M2927.9 169.309V123.379H2830.27V218.529H3066.51V169.309H2927.9Z" fill="white"/>
<path d="M1196.2 169.31H1121.17V123.39H1023.54V168.51C1023.54 196.14 1045.93 218.53 1073.56 218.53H1293.84V132.91H1196.21V169.31H1196.2Z" fill="white"/>
<path d="M1023.53 94.0494H1293.83V43.8594H1073.72C1046 43.8594 1023.53 66.3294 1023.53 94.0494V94.0494Z" fill="white"/>
<path d="M113.93 205.08C111.08 205.08 108.64 207.53 108.64 210.62C108.64 213.71 111.08 216.16 113.93 216.16C116.78 216.16 119.23 213.7 119.23 210.62C119.23 207.54 116.78 205.08 113.93 205.08ZM116.89 214.16H115.75L113.7 210.85H112.55V214.16H111.6V206.99H114.57C115.8 206.99 116.99 207.34 116.99 208.88C116.99 210.29 116.05 210.81 114.84 210.84L116.9 214.15L116.89 214.16Z" fill="white"/>
<path d="M114.38 208H112.56V209.84H113.71C114.55 209.84 116.03 210.01 116.03 208.87C116.03 208.14 115.11 208 114.38 208V208Z" fill="white"/>
<path d="M0 0.429688V264.46H483.1V0.429688H0ZM137.49 77.7497H137.5C137.53 66.3797 146.75 57.1597 158.15 57.1597C169.55 57.1597 178.78 66.3897 178.8 77.7497V113.26H178.78C178.49 124.42 169.37 133.37 158.15 133.37C146.93 133.37 137.81 124.42 137.51 113.26H137.5V77.7497H137.49ZM113.94 217.17C110.45 217.17 107.69 214.26 107.69 210.62C107.69 206.98 110.45 204.07 113.94 204.07C117.43 204.07 120.19 206.98 120.19 210.62C120.19 214.26 117.44 217.17 113.94 217.17ZM254.19 84.0297C250.93 93.0897 244.37 98.0297 236.68 102.96C227.42 108.9 219.06 116.25 212.17 124.85C201.97 137.59 195.16 152.8 191.92 168.77C190.37 176.36 189.42 186.43 188.77 193.47C187.29 209.69 176.08 222.99 158.16 222.99C140.24 222.99 129 209.69 127.53 193.47C126.9 186.43 125.93 176.36 124.38 168.77C121.15 152.81 114.34 137.59 104.13 124.85C97.23 116.26 88.87 108.91 79.62 102.96C71.94 98.0197 65.37 93.0797 62.12 84.0297C54.7 63.5197 70.44 41.2197 92.21 41.2197C105.03 41.2197 113.82 50.0697 124.74 55.3897C125.5 55.7597 126.31 56.1297 127.11 56.4797V112.49V112.67C127.11 129.8 141.01 143.71 158.16 143.71C175.31 143.71 188.88 130.1 189.18 113.21H189.2V56.4797C190.03 56.1297 190.82 55.7697 191.58 55.3897C202.51 50.0597 211.3 41.2197 224.1 41.2197C245.88 41.2197 261.6 63.5197 254.21 84.0297H254.19ZM412.25 221.19H284.5C285.8 187.17 307.09 166.4 327.34 150.57C349.67 132.91 374.08 120.45 374.08 97.5897C374.08 80.9797 365.25 69.8097 349.41 69.8097C331.5 69.8097 320.86 82.7897 320.33 105.9H287.1C287.1 65.3997 307.87 39.6897 350.19 39.6897C388.88 39.6897 410.69 65.9097 410.69 96.5497C410.69 130.04 387.84 145.89 366.03 160.42C352.27 169.25 336.17 180.68 330.2 192.1H412.25V221.18V221.19Z" fill="white"/>
</svg>
